<svg width="150" height="130" viewBox="0 0 150 130" fill="none" xmlns="http://www.w3.org/2000/svg">
<circle cx="76" cy="35" r="35" fill="#FF5B37"/>
<path d="M86.5 24.5L65.5 45.5" stroke="white" stroke-width="4" stroke-linecap="round" stroke-linejoin="round"/>
<path d="M65.5 24.5L86.5 45.5" stroke="white" stroke-width="4" stroke-linecap="round" stroke-linejoin="round"/>
<path d="M5.55838 122V108.822H0.498375V106.49H13.4564V108.822H8.39638V122H5.55838ZM20.5218 113.266L18.9158 113.42C17.0971 113.611 16.1878 114.535 16.1878 116.192V122H13.4378V111.242H16.0558V113.134C16.6131 111.843 17.7645 111.139 19.5098 111.022L20.3458 110.956L20.5218 113.266ZM26.4367 110.978C27.9474 110.978 29.0694 111.345 29.8027 112.078C30.5361 112.811 30.9027 113.941 30.9027 115.466V122H28.2847V120.35C28.0354 120.922 27.6394 121.369 27.0967 121.692C26.5687 122.015 25.9527 122.176 25.2487 122.176C24.5301 122.176 23.8774 122.029 23.2907 121.736C22.7041 121.443 22.2421 121.039 21.9047 120.526C21.5674 120.013 21.3987 119.441 21.3987 118.81C21.3987 118.018 21.5967 117.395 21.9927 116.94C22.4034 116.485 23.0634 116.155 23.9727 115.95C24.8821 115.745 26.1361 115.642 27.7347 115.642H28.2847V115.136C28.2847 114.403 28.1234 113.875 27.8007 113.552C27.4927 113.229 26.9721 113.068 26.2387 113.068C25.6667 113.068 25.0654 113.171 24.4347 113.376C23.8187 113.567 23.2101 113.838 22.6087 114.19L21.8387 112.298C22.4401 111.917 23.1661 111.601 24.0167 111.352C24.8674 111.103 25.6741 110.978 26.4367 110.978ZM25.7987 120.196C26.5321 120.196 27.1261 119.954 27.5807 119.47C28.0501 118.971 28.2847 118.333 28.2847 117.556V117.094H27.8887C26.9061 117.094 26.1434 117.138 25.6007 117.226C25.0581 117.314 24.6694 117.468 24.4347 117.688C24.2001 117.908 24.0827 118.209 24.0827 118.59C24.0827 119.059 24.2441 119.448 24.5667 119.756C24.8894 120.049 25.3001 120.196 25.7987 120.196ZM39.9456 110.978C41.2362 110.978 42.1969 111.345 42.8276 112.078C43.4582 112.811 43.7736 113.919 43.7736 115.4V122H41.0236V115.554C41.0236 114.718 40.8622 114.109 40.5396 113.728C40.2316 113.347 39.7402 113.156 39.0656 113.156C38.2736 113.156 37.6356 113.405 37.1516 113.904C36.6822 114.403 36.4476 115.07 36.4476 115.906V122H33.6976V111.242H36.3816V112.848C36.7482 112.247 37.2396 111.785 37.8556 111.462C38.4716 111.139 39.1682 110.978 39.9456 110.978ZM50.5267 122.176C49.5734 122.176 48.6934 122.059 47.8867 121.824C47.0947 121.589 46.4201 121.252 45.8627 120.812L46.6327 118.898C47.7767 119.734 49.0894 120.152 50.5707 120.152C51.2014 120.152 51.6781 120.049 52.0007 119.844C52.3381 119.639 52.5067 119.345 52.5067 118.964C52.5067 118.641 52.3894 118.392 52.1547 118.216C51.9347 118.04 51.5314 117.879 50.9447 117.732L49.1847 117.336C48.1874 117.116 47.4467 116.757 46.9627 116.258C46.4787 115.759 46.2367 115.114 46.2367 114.322C46.2367 113.662 46.4201 113.083 46.7867 112.584C47.1681 112.071 47.6887 111.675 48.3487 111.396C49.0234 111.117 49.8007 110.978 50.6807 110.978C51.4434 110.978 52.1767 111.095 52.8807 111.33C53.5994 111.565 54.2301 111.895 54.7727 112.32L54.0027 114.19C52.8881 113.383 51.7734 112.98 50.6587 112.98C50.0574 112.98 49.5881 113.09 49.2507 113.31C48.9134 113.53 48.7447 113.838 48.7447 114.234C48.7447 114.527 48.8474 114.769 49.0527 114.96C49.2727 115.151 49.6174 115.297 50.0867 115.4L51.9127 115.818C52.9834 116.053 53.7681 116.427 54.2667 116.94C54.7654 117.439 55.0147 118.099 55.0147 118.92C55.0147 119.917 54.6114 120.709 53.8047 121.296C52.9981 121.883 51.9054 122.176 50.5267 122.176ZM60.7425 111.242H63.5805V113.31H60.7425V122H57.9925V113.31H55.9245V111.242H57.9925C57.9925 109.702 58.3885 108.543 59.1805 107.766C59.9871 106.989 61.2338 106.556 62.9205 106.468L63.9985 106.402L64.1745 108.448L63.1405 108.492C62.2751 108.536 61.6591 108.734 61.2925 109.086C60.9258 109.423 60.7425 109.973 60.7425 110.736V111.242ZM74.4598 117.116H67.1338C67.2218 118.113 67.5225 118.854 68.0358 119.338C68.5491 119.822 69.2825 120.064 70.2358 120.064C71.4238 120.064 72.5091 119.683 73.4918 118.92L74.2838 120.812C73.7851 121.223 73.1545 121.553 72.3918 121.802C71.6438 122.051 70.8885 122.176 70.1258 122.176C68.3658 122.176 66.9725 121.677 65.9458 120.68C64.9338 119.683 64.4278 118.319 64.4278 116.588C64.4278 115.488 64.6478 114.513 65.0878 113.662C65.5278 112.811 66.1438 112.151 66.9358 111.682C67.7425 111.213 68.6518 110.978 69.6638 110.978C71.1451 110.978 72.3111 111.455 73.1618 112.408C74.0271 113.361 74.4598 114.674 74.4598 116.346V117.116ZM69.7298 112.914C68.9965 112.914 68.4025 113.149 67.9478 113.618C67.5078 114.087 67.2365 114.762 67.1338 115.642H72.1058C72.0765 114.747 71.8565 114.073 71.4458 113.618C71.0351 113.149 70.4631 112.914 69.7298 112.914ZM83.7933 113.266L82.1873 113.42C80.3686 113.611 79.4593 114.535 79.4593 116.192V122H76.7093V111.242H79.3273V113.134C79.8846 111.843 81.036 111.139 82.7813 111.022L83.6173 110.956L83.7933 113.266ZM91.3458 122V106.49H101.51V108.756H94.1398V112.98H101.07V115.246H94.1398V122H91.3458ZM107.863 110.978C109.373 110.978 110.495 111.345 111.229 112.078C111.962 112.811 112.329 113.941 112.329 115.466V122H109.711V120.35C109.461 120.922 109.065 121.369 108.523 121.692C107.995 122.015 107.379 122.176 106.675 122.176C105.956 122.176 105.303 122.029 104.716 121.736C104.13 121.443 103.668 121.039 103.331 120.526C102.993 120.013 102.825 119.441 102.825 118.81C102.825 118.018 103.023 117.395 103.419 116.94C103.829 116.485 104.489 116.155 105.399 115.95C106.308 115.745 107.562 115.642 109.161 115.642H109.711V115.136C109.711 114.403 109.549 113.875 109.227 113.552C108.919 113.229 108.398 113.068 107.665 113.068C107.093 113.068 106.491 113.171 105.861 113.376C105.245 113.567 104.636 113.838 104.035 114.19L103.264 112.298C103.866 111.917 104.592 111.601 105.443 111.352C106.293 111.103 107.1 110.978 107.863 110.978ZM107.225 120.196C107.958 120.196 108.552 119.954 109.007 119.47C109.476 118.971 109.711 118.333 109.711 117.556V117.094H109.315C108.332 117.094 107.569 117.138 107.027 117.226C106.484 117.314 106.095 117.468 105.861 117.688C105.626 117.908 105.509 118.209 105.509 118.59C105.509 119.059 105.67 119.448 105.993 119.756C106.315 120.049 106.726 120.196 107.225 120.196ZM115.123 122V111.242H117.873V122H115.123ZM114.969 106.248H118.005V108.954H114.969V106.248ZM120.709 122V106.49H123.459V122H120.709ZM135.733 117.116H128.407C128.495 118.113 128.796 118.854 129.309 119.338C129.823 119.822 130.556 120.064 131.509 120.064C132.697 120.064 133.783 119.683 134.765 118.92L135.557 120.812C135.059 121.223 134.428 121.553 133.665 121.802C132.917 122.051 132.162 122.176 131.399 122.176C129.639 122.176 128.246 121.677 127.219 120.68C126.207 119.683 125.701 118.319 125.701 116.588C125.701 115.488 125.921 114.513 126.361 113.662C126.801 112.811 127.417 112.151 128.209 111.682C129.016 111.213 129.925 110.978 130.937 110.978C132.419 110.978 133.585 111.455 134.435 112.408C135.301 113.361 135.733 114.674 135.733 116.346V117.116ZM131.003 112.914C130.27 112.914 129.676 113.149 129.221 113.618C128.781 114.087 128.51 114.762 128.407 115.642H133.379C133.35 114.747 133.13 114.073 132.719 113.618C132.309 113.149 131.737 112.914 131.003 112.914ZM148.367 106.49V122H145.639V120.262C145.316 120.863 144.847 121.333 144.231 121.67C143.629 122.007 142.94 122.176 142.163 122.176C141.239 122.176 140.41 121.941 139.677 121.472C138.958 121.003 138.393 120.343 137.983 119.492C137.587 118.627 137.389 117.637 137.389 116.522C137.389 115.407 137.587 114.432 137.983 113.596C138.393 112.76 138.958 112.115 139.677 111.66C140.395 111.205 141.224 110.978 142.163 110.978C142.94 110.978 143.629 111.139 144.231 111.462C144.832 111.785 145.294 112.239 145.617 112.826V106.49H148.367ZM142.889 120.042C143.769 120.042 144.443 119.741 144.913 119.14C145.397 118.539 145.639 117.681 145.639 116.566C145.639 115.451 145.397 114.601 144.913 114.014C144.443 113.413 143.776 113.112 142.911 113.112C142.031 113.112 141.349 113.405 140.865 113.992C140.381 114.579 140.139 115.422 140.139 116.522C140.139 117.637 140.381 118.502 140.865 119.118C141.349 119.734 142.023 120.042 142.889 120.042Z" fill="#4D4B57"/>
</svg>
