<svg width="171" height="130" viewBox="0 0 171 130" fill="none" xmlns="http://www.w3.org/2000/svg">
<circle cx="86" cy="35" r="35" fill="#1EC15F"/>
<path d="M100 24.5L80.75 43.75L72 35" stroke="white" stroke-width="4" stroke-linecap="round" stroke-linejoin="round"/>
<path d="M5.45584 122V108.822H0.395836V106.49H13.3538V108.822H8.29384V122H5.45584ZM20.4193 113.266L18.8133 113.42C16.9946 113.611 16.0853 114.535 16.0853 116.192V122H13.3353V111.242H15.9533V113.134C16.5106 111.843 17.6619 111.139 19.4073 111.022L20.2433 110.956L20.4193 113.266ZM26.3342 110.978C27.8448 110.978 28.9668 111.345 29.7002 112.078C30.4335 112.811 30.8002 113.941 30.8002 115.466V122H28.1822V120.35C27.9328 120.922 27.5368 121.369 26.9942 121.692C26.4662 122.015 25.8502 122.176 25.1462 122.176C24.4275 122.176 23.7748 122.029 23.1882 121.736C22.6015 121.443 22.1395 121.039 21.8022 120.526C21.4648 120.013 21.2962 119.441 21.2962 118.81C21.2962 118.018 21.4942 117.395 21.8902 116.94C22.3008 116.485 22.9608 116.155 23.8702 115.95C24.7795 115.745 26.0335 115.642 27.6322 115.642H28.1822V115.136C28.1822 114.403 28.0208 113.875 27.6982 113.552C27.3902 113.229 26.8695 113.068 26.1362 113.068C25.5642 113.068 24.9628 113.171 24.3322 113.376C23.7162 113.567 23.1075 113.838 22.5062 114.19L21.7362 112.298C22.3375 111.917 23.0635 111.601 23.9142 111.352C24.7648 111.103 25.5715 110.978 26.3342 110.978ZM25.6962 120.196C26.4295 120.196 27.0235 119.954 27.4782 119.47C27.9475 118.971 28.1822 118.333 28.1822 117.556V117.094H27.7862C26.8035 117.094 26.0408 117.138 25.4982 117.226C24.9555 117.314 24.5668 117.468 24.3322 117.688C24.0975 117.908 23.9802 118.209 23.9802 118.59C23.9802 119.059 24.1415 119.448 24.4642 119.756C24.7868 120.049 25.1975 120.196 25.6962 120.196ZM39.843 110.978C41.1337 110.978 42.0944 111.345 42.725 112.078C43.3557 112.811 43.671 113.919 43.671 115.4V122H40.921V115.554C40.921 114.718 40.7597 114.109 40.437 113.728C40.129 113.347 39.6377 113.156 38.963 113.156C38.171 113.156 37.533 113.405 37.049 113.904C36.5797 114.403 36.345 115.07 36.345 115.906V122H33.595V111.242H36.279V112.848C36.6457 112.247 37.137 111.785 37.753 111.462C38.369 111.139 39.0657 110.978 39.843 110.978ZM50.4242 122.176C49.4708 122.176 48.5908 122.059 47.7842 121.824C46.9922 121.589 46.3175 121.252 45.7602 120.812L46.5302 118.898C47.6742 119.734 48.9868 120.152 50.4682 120.152C51.0988 120.152 51.5755 120.049 51.8982 119.844C52.2355 119.639 52.4042 119.345 52.4042 118.964C52.4042 118.641 52.2868 118.392 52.0522 118.216C51.8322 118.04 51.4288 117.879 50.8422 117.732L49.0822 117.336C48.0848 117.116 47.3442 116.757 46.8602 116.258C46.3762 115.759 46.1342 115.114 46.1342 114.322C46.1342 113.662 46.3175 113.083 46.6842 112.584C47.0655 112.071 47.5862 111.675 48.2462 111.396C48.9208 111.117 49.6982 110.978 50.5782 110.978C51.3408 110.978 52.0742 111.095 52.7782 111.33C53.4968 111.565 54.1275 111.895 54.6702 112.32L53.9002 114.19C52.7855 113.383 51.6708 112.98 50.5562 112.98C49.9548 112.98 49.4855 113.09 49.1482 113.31C48.8108 113.53 48.6422 113.838 48.6422 114.234C48.6422 114.527 48.7448 114.769 48.9502 114.96C49.1702 115.151 49.5148 115.297 49.9842 115.4L51.8102 115.818C52.8808 116.053 53.6655 116.427 54.1642 116.94C54.6628 117.439 54.9122 118.099 54.9122 118.92C54.9122 119.917 54.5088 120.709 53.7022 121.296C52.8955 121.883 51.8028 122.176 50.4242 122.176ZM60.6399 111.242H63.4779V113.31H60.6399V122H57.8899V113.31H55.8219V111.242H57.8899C57.8899 109.702 58.2859 108.543 59.0779 107.766C59.8846 106.989 61.1312 106.556 62.8179 106.468L63.8959 106.402L64.0719 108.448L63.0379 108.492C62.1726 108.536 61.5566 108.734 61.1899 109.086C60.8232 109.423 60.6399 109.973 60.6399 110.736V111.242ZM74.3573 117.116H67.0313C67.1193 118.113 67.4199 118.854 67.9333 119.338C68.4466 119.822 69.1799 120.064 70.1333 120.064C71.3213 120.064 72.4066 119.683 73.3893 118.92L74.1813 120.812C73.6826 121.223 73.0519 121.553 72.2893 121.802C71.5413 122.051 70.7859 122.176 70.0233 122.176C68.2633 122.176 66.8699 121.677 65.8433 120.68C64.8313 119.683 64.3253 118.319 64.3253 116.588C64.3253 115.488 64.5453 114.513 64.9853 113.662C65.4253 112.811 66.0413 112.151 66.8333 111.682C67.6399 111.213 68.5493 110.978 69.5613 110.978C71.0426 110.978 72.2086 111.455 73.0593 112.408C73.9246 113.361 74.3573 114.674 74.3573 116.346V117.116ZM69.6273 112.914C68.8939 112.914 68.2999 113.149 67.8453 113.618C67.4053 114.087 67.1339 114.762 67.0313 115.642H72.0033C71.9739 114.747 71.7539 114.073 71.3433 113.618C70.9326 113.149 70.3606 112.914 69.6273 112.914ZM83.6908 113.266L82.0848 113.42C80.2661 113.611 79.3568 114.535 79.3568 116.192V122H76.6068V111.242H79.2248V113.134C79.7821 111.843 80.9334 111.139 82.6788 111.022L83.5148 110.956L83.6908 113.266ZM96.5013 122.198C95.3133 122.198 94.1986 122.037 93.1573 121.714C92.116 121.391 91.236 120.937 90.5173 120.35L91.4633 118.282C92.2113 118.854 92.996 119.272 93.8173 119.536C94.6533 119.8 95.5553 119.932 96.5233 119.932C97.594 119.932 98.4153 119.749 98.9873 119.382C99.574 119.001 99.8673 118.473 99.8673 117.798C99.8673 117.211 99.596 116.764 99.0533 116.456C98.5253 116.148 97.638 115.855 96.3913 115.576C95.1006 115.297 94.052 114.975 93.2453 114.608C92.4386 114.241 91.83 113.772 91.4193 113.2C91.0086 112.628 90.8033 111.902 90.8033 111.022C90.8033 110.113 91.0526 109.299 91.5513 108.58C92.05 107.861 92.754 107.304 93.6633 106.908C94.5726 106.497 95.6213 106.292 96.8093 106.292C97.8946 106.292 98.9286 106.461 99.9113 106.798C100.894 107.121 101.701 107.568 102.331 108.14L101.385 110.208C100.007 109.108 98.4813 108.558 96.8093 108.558C95.812 108.558 95.02 108.763 94.4333 109.174C93.8613 109.57 93.5753 110.127 93.5753 110.846C93.5753 111.447 93.832 111.909 94.3453 112.232C94.8586 112.555 95.7313 112.855 96.9633 113.134C98.2686 113.427 99.3246 113.757 100.131 114.124C100.953 114.476 101.576 114.931 102.001 115.488C102.441 116.045 102.661 116.749 102.661 117.6C102.661 118.524 102.412 119.338 101.913 120.042C101.429 120.731 100.718 121.267 99.7793 121.648C98.8553 122.015 97.7626 122.198 96.5013 122.198ZM114.909 111.242V122H112.225V120.35C111.887 120.937 111.433 121.391 110.861 121.714C110.289 122.022 109.643 122.176 108.925 122.176C106.285 122.176 104.965 120.695 104.965 117.732V111.242H107.715V117.754C107.715 118.517 107.869 119.081 108.177 119.448C108.485 119.815 108.969 119.998 109.629 119.998C110.391 119.998 111 119.749 111.455 119.25C111.924 118.737 112.159 118.062 112.159 117.226V111.242H114.909ZM122.677 122.176C121.547 122.176 120.565 121.949 119.729 121.494C118.907 121.039 118.277 120.394 117.837 119.558C117.397 118.722 117.177 117.747 117.177 116.632C117.177 115.517 117.404 114.535 117.859 113.684C118.328 112.819 118.988 112.151 119.839 111.682C120.689 111.213 121.672 110.978 122.787 110.978C123.549 110.978 124.29 111.103 125.009 111.352C125.742 111.587 126.329 111.909 126.769 112.32L125.977 114.256C125.522 113.889 125.038 113.611 124.525 113.42C124.026 113.229 123.527 113.134 123.029 113.134C122.075 113.134 121.335 113.435 120.807 114.036C120.279 114.623 120.015 115.473 120.015 116.588C120.015 117.688 120.279 118.539 120.807 119.14C121.335 119.727 122.075 120.02 123.029 120.02C123.527 120.02 124.026 119.925 124.525 119.734C125.038 119.543 125.522 119.265 125.977 118.898L126.769 120.812C126.299 121.237 125.698 121.575 124.965 121.824C124.231 122.059 123.469 122.176 122.677 122.176ZM133.419 122.176C132.29 122.176 131.307 121.949 130.471 121.494C129.65 121.039 129.019 120.394 128.579 119.558C128.139 118.722 127.919 117.747 127.919 116.632C127.919 115.517 128.146 114.535 128.601 113.684C129.07 112.819 129.73 112.151 130.581 111.682C131.432 111.213 132.414 110.978 133.529 110.978C134.292 110.978 135.032 111.103 135.751 111.352C136.484 111.587 137.071 111.909 137.511 112.32L136.719 114.256C136.264 113.889 135.78 113.611 135.267 113.42C134.768 113.229 134.27 113.134 133.771 113.134C132.818 113.134 132.077 113.435 131.549 114.036C131.021 114.623 130.757 115.473 130.757 116.588C130.757 117.688 131.021 118.539 131.549 119.14C132.077 119.727 132.818 120.02 133.771 120.02C134.27 120.02 134.768 119.925 135.267 119.734C135.78 119.543 136.264 119.265 136.719 118.898L137.511 120.812C137.042 121.237 136.44 121.575 135.707 121.824C134.974 122.059 134.211 122.176 133.419 122.176ZM148.693 117.116H141.367C141.455 118.113 141.756 118.854 142.269 119.338C142.783 119.822 143.516 120.064 144.469 120.064C145.657 120.064 146.743 119.683 147.725 118.92L148.517 120.812C148.019 121.223 147.388 121.553 146.625 121.802C145.877 122.051 145.122 122.176 144.359 122.176C142.599 122.176 141.206 121.677 140.179 120.68C139.167 119.683 138.661 118.319 138.661 116.588C138.661 115.488 138.881 114.513 139.321 113.662C139.761 112.811 140.377 112.151 141.169 111.682C141.976 111.213 142.885 110.978 143.897 110.978C145.379 110.978 146.545 111.455 147.395 112.408C148.261 113.361 148.693 114.674 148.693 116.346V117.116ZM143.963 112.914C143.23 112.914 142.636 113.149 142.181 113.618C141.741 114.087 141.47 114.762 141.367 115.642H146.339C146.31 114.747 146.09 114.073 145.679 113.618C145.269 113.149 144.697 112.914 143.963 112.914ZM154.903 122.176C153.949 122.176 153.069 122.059 152.263 121.824C151.471 121.589 150.796 121.252 150.239 120.812L151.009 118.898C152.153 119.734 153.465 120.152 154.947 120.152C155.577 120.152 156.054 120.049 156.377 119.844C156.714 119.639 156.883 119.345 156.883 118.964C156.883 118.641 156.765 118.392 156.531 118.216C156.311 118.04 155.907 117.879 155.321 117.732L153.561 117.336C152.563 117.116 151.823 116.757 151.339 116.258C150.855 115.759 150.613 115.114 150.613 114.322C150.613 113.662 150.796 113.083 151.163 112.584C151.544 112.071 152.065 111.675 152.725 111.396C153.399 111.117 154.177 110.978 155.057 110.978C155.819 110.978 156.553 111.095 157.257 111.33C157.975 111.565 158.606 111.895 159.149 112.32L158.379 114.19C157.264 113.383 156.149 112.98 155.035 112.98C154.433 112.98 153.964 113.09 153.627 113.31C153.289 113.53 153.121 113.838 153.121 114.234C153.121 114.527 153.223 114.769 153.429 114.96C153.649 115.151 153.993 115.297 154.463 115.4L156.289 115.818C157.359 116.053 158.144 116.427 158.643 116.94C159.141 117.439 159.391 118.099 159.391 118.92C159.391 119.917 158.987 120.709 158.181 121.296C157.374 121.883 156.281 122.176 154.903 122.176ZM165.58 122.176C164.627 122.176 163.747 122.059 162.94 121.824C162.148 121.589 161.474 121.252 160.916 120.812L161.686 118.898C162.83 119.734 164.143 120.152 165.624 120.152C166.255 120.152 166.732 120.049 167.054 119.844C167.392 119.639 167.56 119.345 167.56 118.964C167.56 118.641 167.443 118.392 167.208 118.216C166.988 118.04 166.585 117.879 165.998 117.732L164.238 117.336C163.241 117.116 162.5 116.757 162.016 116.258C161.532 115.759 161.29 115.114 161.29 114.322C161.29 113.662 161.474 113.083 161.84 112.584C162.222 112.071 162.742 111.675 163.402 111.396C164.077 111.117 164.854 110.978 165.734 110.978C166.497 110.978 167.23 111.095 167.934 111.33C168.653 111.565 169.284 111.895 169.826 112.32L169.056 114.19C167.942 113.383 166.827 112.98 165.712 112.98C165.111 112.98 164.642 113.09 164.304 113.31C163.967 113.53 163.798 113.838 163.798 114.234C163.798 114.527 163.901 114.769 164.106 114.96C164.326 115.151 164.671 115.297 165.14 115.4L166.966 115.818C168.037 116.053 168.822 116.427 169.32 116.94C169.819 117.439 170.068 118.099 170.068 118.92C170.068 119.917 169.665 120.709 168.858 121.296C168.052 121.883 166.959 122.176 165.58 122.176Z" fill="#4D4B57"/>
</svg>
